<?xml version="1.0"?><!DOCTYPE svg  PUBLIC '-//W3C//DTD SVG 1.1//EN'  'http://www.w3.org/Graphics/SVG/1.1/DTD/svg11.dtd'><svg height="512px" style="enable-background:new 0 0 512 512;" version="1.1" viewBox="0 0 512 512" width="512px" xml:space="preserve" xmlns="http://www.w3.org/2000/svg" xmlns:xlink="http://www.w3.org/1999/xlink"><g id="_x35_6-linkedin"><path d="M376,16H136C69.726,16,16,69.726,16,136v240c0,66.274,53.726,120,120,120h240c66.274,0,120-53.726,120-120V136   C496,69.726,442.274,16,376,16z M127.304,85.025c20.269,0,36.706,16.422,36.706,36.678c0,20.26-16.438,36.679-36.706,36.679   c-20.271,0-36.705-16.419-36.705-36.679C90.599,101.447,107.033,85.025,127.304,85.025z M166,420H91V190h75V420z M426,420h-75   V273.653c-24-57.971-80,20.961-80,20.961V420h-76V190h76v43.896c9-12.279,36.652-44.076,80.4-44.076   c5.115,0,9.365,0.565,13.346,1.364c1.029,0.163,1.974,0.354,2.982,0.584c0.837,0.234,1.469,0.507,2.268,0.756   C402.23,200.927,426,229.953,426,264.79V420z"/></g><g id="Layer_1"/></svg>